# xmcd
# 
# Track frame offsets:
#   150
#   16526
#   35305
#   50581
#   67241
#   85445
#   103860
#   120439
#   137320
#   159330
#   177121
#   195413
#   217112
#   235241
#   252824
# 
# Disc length: 3597 seconds
# 
# Revision: 0
# Processed by: cddbd v1.5.2PL0 Copyright (c) Steve Scherf et al.
# Submitted via: VOLTOCDX V1.0.24 
# 
DISCID=c20e0b0f
DTITLE=Various Artist - All Star Karaoke Series - Gal Country - Vol. 2 Disc 1
DYEAR=2003
DGENRE=Karaoke
TTITLE0=Angels In Waiting - Tammy Cochran
TTITLE1=Ashes By Now - Lee Ann Womack
TTITLE2=Big Deal - LeAnn Rimes
TTITLE3=Born To Fly - Sara Evans
TTITLE4=Breath - Faith Hill
TTITLE5=Burn - Jo Dee Messina
TTITLE6=Can't Fight The Moonlight - LeAnn Rimes
TTITLE7=Complicated - Carolyn Dawn Johnson
TTITLE8=Cowboy Take Me Away - Dixie Chicks
TTITLE9=Heartbreak Town - Dixie Chicks
TTITLE10=Helplessly Hopelessly - Jessica Andrews
TTITLE11=I Could Not Ask For More - Sara Evans
TTITLE12=I Hope You Dance - Lee Ann Womack
TTITLE13=I Would've Loved You Anyway - Trisha Yearwood
TTITLE14=If My Heart Had Wings - Faith Hill
EXTD=
EXTT0=
EXTT1=
EXTT2=
EXTT3=
EXTT4=
EXTT5=
EXTT6=
EXTT7=
EXTT8=
EXTT9=
EXTT10=
EXTT11=
EXTT12=
EXTT13=
EXTT14=
PLAYORDER=
